Crispy Wide Black-MinGrade.ufo
<glyph name="exclam" format="2">
  <advance width="1452"/>
  <unicode hex="0021"/>
  <outline>
    <contour>
      <point x="240" y="632" type="line" identifier="1m237t4hyw"/>
      <point x="1119" y="632" type="line" identifier="S4rO5KuHiL"/>
      <point x="1209" y="746" type="line"/>
      <point x="1209" y="1600" type="line" identifier="zfocDyDTCM"/>
      <point x="330" y="1600" type="line" identifier="v7N4yg5XNk"/>
      <point x="240" y="1454" type="line"/>
    </contour>
    <component base="period" xOffset="95"/>
  </outline>
</glyph>
<glyph name="comma" format="2">
  <advance width="2009"/>
  <unicode hex="002C"/>
  <outline>
    <contour>
      <point x="1381" y="-355" type="line"/>
      <point x="1819" y="1" type="line"/>
      <point x="1819" y="536" type="line"/>
      <point x="1053" y="536" type="line"/>
      <point x="909" y="357" type="line"/>
      <point x="909" y="0" type="line"/>
      <point x="1311" y="0" type="line"/>
      <point x="1311" y="-355" type="line"/>
    </contour>
  </outline>
</glyph>
<glyph name="period" format="2">
  <advance width="1387"/>
  <unicode hex="002E"/>
  <outline>
    <contour>
      <point x="1088" y="0" type="line" identifier="1m237t4hyw"/>
      <point x="1206" y="113" type="line" identifier="v7N4yg5XNk"/>
      <point x="1206" y="534" type="line"/>
      <point x="361" y="534" type="line" identifier="zfocDyDTCM"/>
      <point x="243" y="421" type="line"/>
      <point x="243" y="0" type="line" identifier="S4rO5KuHiL"/>
    </contour>
  </outline>
</glyph>
<glyph name="zero" format="2">
  <advance width="5447"/>
  <unicode hex="0030"/>
  <outline>
    <contour>
      <point x="289" y="0" type="line" identifier="4KX3b3mGg4"/>
      <point x="5157" y="0" type="line" identifier="V2j8wYP0nr"/>
      <point x="5157" y="1600" type="line" identifier="NaxGoenf3y"/>
      <point x="289" y="1600" type="line" identifier="rx6fJSLiri"/>
    </contour>
    <contour>
      <point x="1198" y="593" type="line"/>
      <point x="1198" y="1007" type="line"/>
      <point x="4249" y="1007" type="line"/>
      <point x="4249" y="593" type="line"/>
    </contour>
  </outline>
</glyph>
<glyph name="three" format="2">
  <advance width="5487"/>
  <unicode hex="0033"/>
  <outline>
    <contour>
      <point x="263" y="0" type="line" identifier="O9abUc1nmN"/>
      <point x="5224" y="0" type="line" identifier="kMJYMTfXCq"/>
      <point x="5224" y="1016" type="line" identifier="su2XmdS8e8"/>
      <point x="4887" y="1016" type="line" identifier="JQaOzDQqlF"/>
      <point x="4887" y="1600" type="line" identifier="xg8x2Ki40p"/>
      <point x="295" y="1600" type="line" identifier="pE1XSRiy68"/>
      <point x="295" y="894" type="line" identifier="5lNstGRcSF"/>
      <point x="1205" y="894" type="line" identifier="AcE5xKDZfE"/>
      <point x="1205" y="1110" type="line" identifier="7ogBYufWpl"/>
      <point x="3977" y="1110" type="line" identifier="RHLvSX2Jv6"/>
      <point x="3977" y="1016" type="line" identifier="iic1IBkDqp"/>
      <point x="1749" y="1016" type="line" identifier="lRLJEhXMlO"/>
      <point x="1749" y="581" type="line" identifier="8aKgEELrVU"/>
      <point x="4314" y="581" type="line" identifier="Dm8zjmbhNr"/>
      <point x="4314" y="490" type="line" identifier="xv9CFHiFgB"/>
      <point x="1173" y="490" type="line" identifier="YajKQV3MHP"/>
      <point x="1173" y="712" type="line" identifier="36SchVkwze"/>
      <point x="263" y="712" type="line" identifier="tVui9PiOjA"/>
    </contour>
  </outline>
</glyph>
<glyph name="four" format="2">
  <advance width="5272"/>
  <unicode hex="0034"/>
  <outline>
    <contour>
      <point x="3765" y="0" type="line"/>
      <point x="4674" y="0" type="line"/>
      <point x="4674" y="481" type="line"/>
      <point x="5078" y="481" type="line"/>
      <point x="5078" y="1010" type="line"/>
      <point x="4674" y="1010" type="line"/>
      <point x="4674" y="1600" type="line"/>
      <point x="3765" y="1600" type="line"/>
      <point x="3765" y="1010" type="line"/>
      <point x="1101" y="1010" type="line"/>
      <point x="1101" y="1076" type="line"/>
      <point x="1103" y="1535" type="line"/>
      <point x="194" y="1535" type="line"/>
      <point x="194" y="1075" type="line"/>
      <point x="194" y="481" type="line"/>
      <point x="3765" y="481" type="line"/>
    </contour>
  </outline>
</glyph>
<glyph name="six" format="2">
  <advance width="5390"/>
  <unicode hex="0036"/>
  <outline>
    <contour>
      <point x="262" y="0" type="line" identifier="uiw6aBUf4P"/>
      <point x="5128" y="0" type="line" identifier="jtYkxiUX6G"/>
      <point x="5128" y="1043" type="line" identifier="2G5L37c87I"/>
      <point x="1170" y="1043" type="line"/>
      <point x="1170" y="978" type="line"/>
      <point x="1369" y="1110" type="line"/>
      <point x="4218" y="1110" type="line"/>
      <point x="4218" y="1048" type="line"/>
      <point x="5127" y="1048" type="line" identifier="Wuidbv6mUe"/>
      <point x="5127" y="1600" type="line" identifier="oGvEEuxnYv"/>
      <point x="752" y="1600" type="line" identifier="xR3pEHbMJx"/>
      <point x="262" y="1199" type="line" identifier="KnMArb0tv8"/>
    </contour>
    <contour>
      <point x="4218" y="554" type="line"/>
      <point x="4218" y="490" type="line"/>
      <point x="1170" y="490" type="line"/>
      <point x="1170" y="554" type="line"/>
    </contour>
  </outline>
</glyph>
<glyph name="eight" format="2">
  <advance width="5405"/>
  <unicode hex="0038"/>
  <outline>
    <contour>
      <point x="3951" y="555" type="line"/>
      <point x="4322" y="384" type="line"/>
      <point x="4322" y="490" type="line"/>
      <point x="1084" y="490" type="line"/>
      <point x="1084" y="367" type="line"/>
      <point x="1457" y="555" type="line"/>
    </contour>
    <contour>
      <point x="4856" y="799" type="line"/>
      <point x="4856" y="801" type="line"/>
      <point x="5227" y="1007" type="line"/>
      <point x="5227" y="1600" type="line"/>
      <point x="179" y="1600" type="line"/>
      <point x="179" y="1007" type="line"/>
      <point x="551" y="801" type="line"/>
      <point x="551" y="799" type="line"/>
      <point x="176" y="592" type="line"/>
      <point x="176" y="0" type="line"/>
      <point x="5230" y="0" type="line"/>
      <point x="5230" y="592" type="line"/>
    </contour>
    <contour>
      <point x="1457" y="1045" type="line"/>
      <point x="1088" y="1224" type="line"/>
      <point x="1087" y="1110" type="line"/>
      <point x="4319" y="1110" type="line"/>
      <point x="4318" y="1224" type="line"/>
      <point x="3950" y="1045" type="line"/>
    </contour>
  </outline>
</glyph>
<glyph name="nine" format="2">
  <advance width="5223"/>
  <unicode hex="0039"/>
  <outline>
    <contour>
      <point x="5032" y="1603" type="line" identifier="uiw6aBUf4P"/>
      <point x="163" y="1603" type="line" identifier="jtYkxiUX6G"/>
      <point x="163" y="566" type="line" identifier="2G5L37c87I"/>
      <point x="4123" y="566" type="line"/>
      <point x="4123" y="501" type="line"/>
      <point x="1073" y="501" type="line"/>
      <point x="1073" y="542" type="line"/>
      <point x="164" y="542" type="line" identifier="Wuidbv6mUe"/>
      <point x="164" y="3" type="line" identifier="oGvEEuxnYv"/>
      <point x="5032" y="3" type="line" identifier="xR3pEHbMJx"/>
    </contour>
    <contour>
      <point x="1073" y="1037" type="line"/>
      <point x="1073" y="1104" type="line"/>
      <point x="4123" y="1104" type="line"/>
      <point x="4123" y="1037" type="line"/>
    </contour>
  </outline>
</glyph>
<glyph name="A" format="2">
  <advance width="5419"/>
  <unicode hex="0041"/>
  <outline>
    <contour>
      <point x="261" y="0" type="line" smooth="yes" identifier="jFq8ta4UUc"/>
      <point x="1169" y="0" type="line" smooth="yes" identifier="dQz4RxYhG4"/>
      <point x="1169" y="277" type="line" smooth="yes" identifier="viYRWe5UN7"/>
      <point x="4130" y="277" type="line" smooth="yes" identifier="QVexAlbAcl"/>
      <point x="4130" y="0" type="line" smooth="yes" identifier="ZgsCdxNJRW"/>
      <point x="5040" y="0" type="line" smooth="yes" identifier="kpn4Kw9J0C"/>
      <point x="5040" y="1600" type="line" smooth="yes" identifier="OBZ5Ayed7M"/>
      <point x="767" y="1600" type="line" smooth="yes" identifier="iDT0uyhKrn"/>
      <point x="261" y="1096" type="line" smooth="yes" identifier="dqVr87m3uJ"/>
    </contour>
    <contour>
      <point x="1169" y="807" type="line" smooth="yes" identifier="IIRC9Wy7kQ"/>
      <point x="1169" y="931" type="line" smooth="yes" identifier="VufvPdJ075"/>
      <point x="1322" y="1070" type="line" smooth="yes" identifier="FsYtJ2vFnp"/>
      <point x="4130" y="1070" type="line" smooth="yes" identifier="tUsW8L7b0y"/>
      <point x="4130" y="807" type="line" smooth="yes" identifier="eTe9B4y76W"/>
    </contour>
  </outline>
</glyph>
<glyph name="B" format="2">
  <advance width="5418"/>
  <unicode hex="0042"/>
  <outline>
    <contour>
      <point x="316" y="0" type="line" identifier="hvY9r8RmLr"/>
      <point x="4770" y="0" type="line" identifier="9QFpw7nfq7"/>
      <point x="5257" y="535" type="line"/>
      <point x="5257" y="1043" type="line" identifier="543PerILpr"/>
      <point x="4812" y="1043" type="line" identifier="zhomauHW30"/>
      <point x="4812" y="1600" type="line" identifier="FaP204GrdB"/>
      <point x="316" y="1600" type="line" identifier="JEev70GAj6"/>
    </contour>
    <contour>
      <point x="1226" y="499" type="line" identifier="jaMSiLrCua"/>
      <point x="1226" y="564" type="line" identifier="XSrxNd2axx"/>
      <point x="4347" y="564" type="line" identifier="lsRGatjQja"/>
      <point x="4347" y="723" type="line"/>
      <point x="4125" y="499" type="line" identifier="xhlDJ3CjD5"/>
    </contour>
    <contour>
      <point x="1226" y="1036" type="line" identifier="By7dfMihfe"/>
      <point x="1226" y="1101" type="line" identifier="1p5hKrurVy"/>
      <point x="3904" y="1101" type="line" identifier="Qby8aMtF2X"/>
      <point x="3904" y="1036" type="line" identifier="xpxyvIzPoc"/>
    </contour>
  </outline>
</glyph>
<glyph name="M" format="2">
  <advance width="6869"/>
  <unicode hex="004D"/>
  <outline>
    <contour>
      <point x="2812" y="6" type="line" identifier="0Dn4Xpf57M"/>
      <point x="1577" y="1070" type="line"/>
      <point x="1232" y="1070" type="line"/>
      <point x="1232" y="0" type="line"/>
      <point x="326" y="0" type="line"/>
      <point x="326" y="1600" type="line"/>
      <point x="2153" y="1600" type="line"/>
      <point x="3280" y="634" type="line"/>
      <point x="3588" y="634" type="line" identifier="9aKZPM0HPh"/>
      <point x="4714" y="1600" type="line"/>
      <point x="6543" y="1600" type="line"/>
      <point x="6543" y="0" type="line"/>
      <point x="5636" y="0" type="line"/>
      <point x="5636" y="1070" type="line"/>
      <point x="5290" y="1070" type="line"/>
      <point x="4058" y="6" type="line" identifier="spdoeeCFft"/>
    </contour>
  </outline>
</glyph>
<glyph name="S" format="2">
  <advance width="4963"/>
  <unicode hex="0053"/>
  <outline>
    <contour>
      <point x="191" y="0" type="line" identifier="09VlJ0BjUX"/>
      <point x="4282" y="0" type="line" identifier="EagWihqFM8"/>
      <point x="4771" y="528" type="line"/>
      <point x="4772" y="1040" type="line" identifier="KfNuQA7eZe"/>
      <point x="1102" y="1040" type="line" identifier="At364YZFEy"/>
      <point x="1102" y="873" type="line"/>
      <point x="1315" y="1102" type="line"/>
      <point x="3872" y="1102" type="line" identifier="3ZUkG35meB"/>
      <point x="3872" y="1062" type="line" identifier="DTOJhFIl15"/>
      <point x="4782" y="1062" type="line" identifier="9KDcrfQ5Ui"/>
      <point x="4781" y="1600" type="line" identifier="SaF9ojRFrW"/>
      <point x="677" y="1600" type="line"/>
      <point x="193" y="1067" type="line"/>
      <point x="193" y="568" type="line" identifier="3sQ8t8BZ6b"/>
      <point x="3862" y="568" type="line" identifier="yiV6OCBLHg"/>
      <point x="3862" y="723" type="line"/>
      <point x="3635" y="498" type="line" identifier="9kdl9SYsn8"/>
      <point x="1101" y="498" type="line" identifier="yZDWuX8LLe"/>
      <point x="1101" y="509" type="line" identifier="jYb9001DTm"/>
      <point x="191" y="509" type="line" identifier="ho4DrS0rdW"/>
    </contour>
  </outline>
</glyph>
<glyph name="X" format="2">
  <advance width="5387"/>
  <unicode hex="0058"/>
  <outline>
    <contour>
      <point x="3863" y="514" type="line"/>
      <point x="4218" y="280" type="line"/>
      <point x="4217" y="0" type="line"/>
      <point x="5126" y="0" type="line"/>
      <point x="5126" y="532" type="line"/>
      <point x="4724" y="772" type="line"/>
      <point x="4724" y="775" type="line"/>
      <point x="5123" y="775" type="line"/>
      <point x="5123" y="1600" type="line"/>
      <point x="4214" y="1600" type="line"/>
      <point x="4214" y="1044" type="line"/>
      <point x="3952" y="1044" type="line"/>
      <point x="1434" y="1044" type="line"/>
      <point x="1174" y="1191" type="line"/>
      <point x="1174" y="1600" type="line"/>
      <point x="265" y="1600" type="line"/>
      <point x="265" y="977" type="line"/>
      <point x="667" y="774" type="line"/>
      <point x="667" y="770" type="line"/>
      <point x="262" y="769" type="line"/>
      <point x="262" y="0" type="line"/>
      <point x="1171" y="0" type="line"/>
      <point x="1171" y="514" type="line"/>
      <point x="1525" y="514" type="line"/>
    </contour>
  </outline>
</glyph>
<glyph name="Z" format="2">
  <advance width="4903"/>
  <unicode hex="005A"/>
  <outline>
    <contour>
      <point x="169" y="0" type="line"/>
      <point x="4733" y="0" type="line" identifier="pzdvPTirLJ"/>
      <point x="4733" y="679" type="line" identifier="91SxUS0iwG"/>
      <point x="3823" y="679" type="line"/>
      <point x="3823" y="490" type="line"/>
      <point x="1078" y="490" type="line"/>
      <point x="1078" y="492" type="line"/>
      <point x="4711" y="892" type="line" identifier="yyb1NCCI5w"/>
      <point x="4711" y="1600" type="line" identifier="5FogYRSgkk"/>
      <point x="191" y="1600" type="line" identifier="svlFvrau4c"/>
      <point x="191" y="999" type="line" identifier="LQ9fBsTy9K"/>
      <point x="1098" y="999" type="line"/>
      <point x="1098" y="1110" type="line"/>
      <point x="3801" y="1110" type="line"/>
      <point x="3802" y="1206" type="line"/>
      <point x="170" y="881" type="line" identifier="teVKnpBcVb"/>
    </contour>
  </outline>
</glyph>
<glyph name="C.wide" format="2">
  <advance width="4764"/>
  <outline>
    <contour>
      <point x="283" y="0" type="line" identifier="7lPhzTnk2Z"/>
      <point x="4505" y="0" type="line" identifier="qJVLZGnkwh"/>
      <point x="4505" y="530" type="line" identifier="Y750RHTvDj"/>
      <point x="1192" y="530" type="line" identifier="L2LsGnXiZ2"/>
      <point x="1192" y="872" type="line" identifier="sUWsr03vF4"/>
      <point x="1372" y="1070" type="line" identifier="dbOUe6OhxL"/>
      <point x="4504" y="1070" type="line" identifier="5BjRbcud80"/>
      <point x="4504" y="1600" type="line" identifier="9eJelv8BOw"/>
      <point x="769" y="1600" type="line" identifier="lfZev3ICaC"/>
      <point x="283" y="1065" type="line" identifier="V1EWIdPahq"/>
    </contour>
  </outline>
</glyph>
<glyph name="E.wide" format="2">
  <advance width="4598"/>
  <outline>
    <contour>
      <point x="278" y="0" type="line" identifier="fZynkQ4XHB"/>
      <point x="4319" y="0" type="line" identifier="FAQNpgUPxV"/>
      <point x="4319" y="498" type="line" identifier="5cgTYOhATF"/>
      <point x="1187" y="498" type="line" identifier="bWs42DaCgU"/>
      <point x="1187" y="565" type="line" identifier="VtD2aADJmn"/>
      <point x="3829" y="565" type="line" identifier="PpbsFdHAnS"/>
      <point x="3829" y="1035" type="line" identifier="8WuC5p8Ax5"/>
      <point x="1187" y="1035" type="line" identifier="m39IWn9ntA"/>
      <point x="1187" y="1102" type="line" identifier="gQ21I4SHQg"/>
      <point x="4298" y="1102" type="line" identifier="eqNb2VTwYs"/>
      <point x="4298" y="1600" type="line" identifier="qYRmo14Il5"/>
      <point x="278" y="1600" type="line" identifier="HmJIcnLWfC"/>
    </contour>
  </outline>
</glyph>
<glyph name="F.wide" format="2">
  <advance width="4854"/>
  <outline>
    <contour>
      <point x="282" y="0" type="line" identifier="oAgH2tA6DJ"/>
      <point x="1192" y="0" type="line" identifier="zCZyMcW5ho"/>
      <point x="1192" y="400" type="line" identifier="yHYqkMd7LI"/>
      <point x="4213" y="400" type="line" identifier="NmB7yyQuio"/>
      <point x="4213" y="930" type="line" identifier="wQk2C8zPHh"/>
      <point x="1192" y="930" type="line" identifier="4cFHKQfHDt"/>
      <point x="1192" y="1070" type="line" identifier="ZvzwyrcwpS"/>
      <point x="4572" y="1070" type="line" identifier="4E754ovOIe"/>
      <point x="4572" y="1600" type="line" identifier="NUrIjqOB7J"/>
      <point x="282" y="1600" type="line" identifier="TBAYuCfUFX"/>
    </contour>
  </outline>
</glyph>
<glyph name="G.wide" format="2">
  <advance width="5163"/>
  <outline>
    <contour>
      <point x="265" y="0" type="line" identifier="7lPhzTnk2Z"/>
      <point x="5007" y="0" type="line" identifier="qJVLZGnkwh"/>
      <point x="5007" y="1032" type="line" identifier="uek1NNj7De"/>
      <point x="3109" y="1032" type="line" identifier="qcvimxjndX"/>
      <point x="3109" y="563" type="line" identifier="EARaY3Su65"/>
      <point x="4097" y="563" type="line" identifier="4m6dHLVhZq"/>
      <point x="4097" y="499" type="line" identifier="Y750RHTvDj"/>
      <point x="1174" y="499" type="line" identifier="L2LsGnXiZ2"/>
      <point x="1174" y="874" type="line" identifier="sUWsr03vF4"/>
      <point x="1355" y="1101" type="line" identifier="dbOUe6OhxL"/>
      <point x="4994" y="1101" type="line" identifier="5BjRbcud80"/>
      <point x="4994" y="1600" type="line" identifier="9eJelv8BOw"/>
      <point x="753" y="1600" type="line" identifier="lfZev3ICaC"/>
      <point x="265" y="1066" type="line" identifier="V1EWIdPahq"/>
    </contour>
  </outline>
</glyph>
<glyph name="I.narrow" format="2">
  <advance width="1697"/>
  <outline>
    <contour>
      <point x="1303" y="0" type="line" identifier="1m237t4hyw"/>
      <point x="1303" y="1602" type="line" identifier="v7N4yg5XNk"/>
      <point x="393" y="1602" type="line" identifier="zfocDyDTCM"/>
      <point x="393" y="0" type="line" identifier="S4rO5KuHiL"/>
    </contour>
  </outline>
</glyph>
<glyph name="L.wide" format="2">
  <advance width="4710"/>
  <outline>
    <contour>
      <point x="379" y="0" type="line" identifier="XkJNfQlnnt"/>
      <point x="4450" y="0" type="line" identifier="82EXZEgt46"/>
      <point x="4450" y="530" type="line" identifier="cqpSxwFiM3"/>
      <point x="1288" y="530" type="line" identifier="MbxRZRd8vz"/>
      <point x="1288" y="1600" type="line" identifier="lYiaKSKITt"/>
      <point x="379" y="1600" type="line" identifier="XFf4mMUzYo"/>
    </contour>
  </outline>
</glyph>
<glyph name="N.wide" format="2">
  <advance width="4771"/>
  <outline>
    <contour>
      <point x="428" y="0" type="line" identifier="CkwYPPvJLv"/>
      <point x="1337" y="0" type="line" identifier="oHTJsN7drZ"/>
      <point x="1337" y="1065" type="line" identifier="wfBbYd10Pm"/>
      <point x="1478" y="1065" type="line" identifier="MEnBDHq6zU"/>
      <point x="3935" y="0" type="line" identifier="3Nbopwznvn"/>
      <point x="5245" y="0" type="line" identifier="uKfuudIUvA"/>
      <point x="5245" y="1600" type="line" identifier="XRdLFXiM4t"/>
      <point x="4336" y="1600" type="line" identifier="MUSJPjCIXg"/>
      <point x="4336" y="537" type="line" identifier="VILP20cFmq"/>
      <point x="4195" y="537" type="line" identifier="z5b04GDwRN"/>
      <point x="1740" y="1600" type="line" identifier="LL64NQ6WBE"/>
      <point x="428" y="1600" type="line" identifier="dzUaaP1sjt"/>
    </contour>
  </outline>
</glyph>
<glyph name="R.wide" format="2">
  <advance width="5214"/>
  <outline>
    <contour>
      <point x="3825" y="0" type="line"/>
      <point x="4735" y="0" type="line"/>
      <point x="4198" y="336" type="line"/>
      <point x="3353" y="335" type="line"/>
    </contour>
    <contour>
      <point x="312" y="-2" type="line" identifier="EG08jqU5fb"/>
      <point x="1221" y="-2" type="line" identifier="osRzIFK2Cu"/>
      <point x="1221" y="299" type="line" identifier="hIFVovVRwe"/>
      <point x="4810" y="299" type="line" identifier="Tt6D8zYZmU"/>
      <point x="4810" y="1598" type="line" identifier="6xW04auDFu"/>
      <point x="312" y="1598" type="line" identifier="eETO5GBD5v"/>
    </contour>
    <contour>
      <point x="1221" y="828" type="line" identifier="PIBVN1PGv1"/>
      <point x="1221" y="1069" type="line" identifier="IZIZQr2gYJ"/>
      <point x="3901" y="1069" type="line" identifier="2c4LCF1E1R"/>
      <point x="3901" y="828" type="line" identifier="1WCnzth1GX"/>
    </contour>
  </outline>
</glyph>
<glyph name="S.wide" format="2">
  <advance width="5090"/>
  <outline>
    <contour>
      <point x="194" y="0" type="line" identifier="09VlJ0BjUX"/>
      <point x="4409" y="0" type="line" identifier="EagWihqFM8"/>
      <point x="4895" y="533" type="line"/>
      <point x="4896" y="1053" type="line" identifier="KfNuQA7eZe"/>
      <point x="1105" y="1053" type="line" identifier="At364YZFEy"/>
      <point x="1105" y="873" type="line"/>
      <point x="1317" y="1102" type="line"/>
      <point x="4908" y="1102" type="line" identifier="3ZUkG35meB"/>
      <point x="4907" y="1600" type="line" identifier="SaF9ojRFrW"/>
      <point x="680" y="1600" type="line"/>
      <point x="196" y="1066" type="line"/>
      <point x="196" y="581" type="line" identifier="3sQ8t8BZ6b"/>
      <point x="3986" y="581" type="line" identifier="yiV6OCBLHg"/>
      <point x="3986" y="723" type="line"/>
      <point x="3761" y="498" type="line" identifier="9kdl9SYsn8"/>
      <point x="194" y="498" type="line" identifier="yZDWuX8LLe"/>
    </contour>
  </outline>
</glyph>
<glyph name="U.alt" format="2">
  <advance width="5034"/>
  <outline>
    <contour>
      <point x="3888" y="1600" type="line" smooth="yes"/>
      <point x="3888" y="530" type="line"/>
      <point x="1143" y="530" type="line" smooth="yes"/>
      <point x="1143" y="1600" type="line"/>
      <point x="234" y="1600" type="line" smooth="yes"/>
      <point x="234" y="0" type="line" smooth="yes"/>
      <point x="4798" y="0" type="line" smooth="yes"/>
      <point x="4798" y="1600" type="line" smooth="yes"/>
    </contour>
  </outline>
</glyph>
<glyph name="Y.wide" format="2">
  <advance width="5409"/>
  <outline>
    <contour>
      <point x="313" y="0" type="line"/>
      <point x="5117" y="0" type="line" identifier="oOtn61SmRY"/>
      <point x="5117" y="1600" type="line" identifier="8OglXgblhr"/>
      <point x="4208" y="1600" type="line" identifier="db0bPhBdaU"/>
      <point x="4208" y="1132" type="line" identifier="MTAeavIVWY"/>
      <point x="1202" y="1132" type="line" identifier="lggLiivmLt"/>
      <point x="1202" y="1600" type="line" identifier="UPaHY3UudR"/>
      <point x="293" y="1600" type="line" identifier="ZnCDQVdtyD"/>
      <point x="293" y="633" type="line" identifier="uqAJBjDIOT"/>
      <point x="4208" y="633" type="line" identifier="7JgTtdb0jg"/>
      <point x="4208" y="499" type="line"/>
      <point x="313" y="499" type="line"/>
    </contour>
  </outline>
</glyph>
<glyph name="Z.wide" format="2">
  <advance width="5065"/>
  <outline>
    <contour>
      <point x="181" y="0" type="line"/>
      <point x="4870" y="0" type="line" identifier="pzdvPTirLJ"/>
      <point x="4870" y="489" type="line"/>
      <point x="1194" y="489" type="line"/>
      <point x="1194" y="449" type="line"/>
      <point x="4878" y="746" type="line" identifier="yyb1NCCI5w"/>
      <point x="4878" y="1600" type="line" identifier="5FogYRSgkk"/>
      <point x="217" y="1600" type="line" identifier="svlFvrau4c"/>
      <point x="217" y="1110" type="line"/>
      <point x="3753" y="1110" type="line"/>
      <point x="3753" y="1170" type="line"/>
      <point x="181" y="884" type="line" identifier="teVKnpBcVb"/>
    </contour>
  </outline>
</glyph>
<glyph name="five.wide" format="2">
  <advance width="5241"/>
  <outline>
    <contour>
      <point x="196" y="0" type="line" identifier="09VlJ0BjUX"/>
      <point x="5047" y="0" type="line" identifier="EagWihqFM8"/>
      <point x="5047" y="1036" type="line" identifier="KfNuQA7eZe"/>
      <point x="1103" y="1036" type="line" identifier="At364YZFEy"/>
      <point x="1103" y="1101" type="line" identifier="BcuLfvaQKC"/>
      <point x="5047" y="1101" type="line" identifier="3ZUkG35meB"/>
      <point x="5047" y="1600" type="line" identifier="SaF9ojRFrW"/>
      <point x="195" y="1600" type="line" identifier="F4sQEYelA8"/>
      <point x="195" y="564" type="line" identifier="3sQ8t8BZ6b"/>
      <point x="4138" y="564" type="line" identifier="yiV6OCBLHg"/>
      <point x="4138" y="499" type="line" identifier="9kdl9SYsn8"/>
      <point x="196" y="499" type="line" identifier="yZDWuX8LLe"/>
    </contour>
  </outline>
</glyph>
<glyph name="nine.wide" format="2">
  <advance width="4976"/>
  <outline>
    <contour>
      <point x="331" y="0" type="line" identifier="oGvEEuxnYv"/>
      <point x="5198" y="0" type="line" identifier="xR3pEHbMJx"/>
      <point x="5198" y="1600" type="line" identifier="uiw6aBUf4P"/>
      <point x="330" y="1600" type="line" identifier="jtYkxiUX6G"/>
      <point x="330" y="564" type="line" identifier="2G5L37c87I"/>
      <point x="4289" y="564" type="line"/>
      <point x="4289" y="499" type="line"/>
      <point x="331" y="499" type="line"/>
    </contour>
    <contour>
      <point x="1240" y="1036" type="line"/>
      <point x="1240" y="1101" type="line"/>
      <point x="4289" y="1101" type="line"/>
      <point x="4289" y="1036" type="line"/>
    </contour>
  </outline>
</glyph>
<glyph name="one.narrow" format="2">
  <advance width="3247"/>
  <outline>
    <contour>
      <point x="2953" y="0" type="line" identifier="5nmxQXofSG"/>
      <point x="2953" y="1600" type="line" identifier="4rjIeWbSbx"/>
      <point x="176" y="1600" type="line"/>
      <point x="176" y="1070" type="line"/>
      <point x="2044" y="1070" type="line"/>
      <point x="2044" y="0" type="line"/>
    </contour>
  </outline>
</glyph>
<glyph name="six.wide" format="2">
  <advance width="4999"/>
  <outline>
    <contour>
      <point x="286" y="0" type="line" identifier="uiw6aBUf4P"/>
      <point x="5158" y="0" type="line" identifier="jtYkxiUX6G"/>
      <point x="5158" y="1033" type="line" identifier="2G5L37c87I"/>
      <point x="1195" y="1033" type="line"/>
      <point x="1195" y="1094" type="line"/>
      <point x="1396" y="1101" type="line"/>
      <point x="5157" y="1101" type="line"/>
      <point x="5157" y="1600" type="line" identifier="oGvEEuxnYv"/>
      <point x="776" y="1600" type="line" identifier="xR3pEHbMJx"/>
      <point x="286" y="1314" type="line" identifier="KnMArb0tv8"/>
    </contour>
    <contour>
      <point x="4248" y="564" type="line"/>
      <point x="4248" y="499" type="line"/>
      <point x="1195" y="499" type="line"/>
      <point x="1195" y="564" type="line"/>
    </contour>
  </outline>
</glyph>
<glyph name="three.wide" format="2">
  <advance width="5606"/>
  <outline>
    <contour>
      <point x="265" y="0" type="line" identifier="O9abUc1nmN"/>
      <point x="5224" y="0" type="line" identifier="kMJYMTfXCq"/>
      <point x="5224" y="1031" type="line" identifier="su2XmdS8e8"/>
      <point x="4788" y="1031" type="line" identifier="JQaOzDQqlF"/>
      <point x="4788" y="1600" type="line" identifier="xg8x2Ki40p"/>
      <point x="341" y="1600" type="line" identifier="pE1XSRiy68"/>
      <point x="341" y="1101" type="line" identifier="7ogBYufWpl"/>
      <point x="3878" y="1101" type="line" identifier="RHLvSX2Jv6"/>
      <point x="3878" y="1035" type="line" identifier="iic1IBkDqp"/>
      <point x="700" y="1035" type="line" identifier="lRLJEhXMlO"/>
      <point x="700" y="563" type="line" identifier="8aKgEELrVU"/>
      <point x="4314" y="563" type="line" identifier="Dm8zjmbhNr"/>
      <point x="4314" y="499" type="line" identifier="xv9CFHiFgB"/>
      <point x="265" y="499" type="line" identifier="YajKQV3MHP"/>
    </contour>
  </outline>
</glyph>
<glyph name="two.wide" format="2">
  <advance width="4931"/>
  <outline>
    <contour>
      <point x="346" y="0" type="line"/>
      <point x="4973" y="0" type="line" identifier="pzdvPTirLJ"/>
      <point x="4973" y="499" type="line"/>
      <point x="1256" y="499" type="line"/>
      <point x="1256" y="566" type="line"/>
      <point x="5004" y="566" type="line" identifier="yyb1NCCI5w"/>
      <point x="5004" y="1600" type="line" identifier="5FogYRSgkk"/>
      <point x="349" y="1600" type="line" identifier="svlFvrau4c"/>
      <point x="349" y="1101" type="line"/>
      <point x="4094" y="1101" type="line"/>
      <point x="4094" y="1033" type="line"/>
      <point x="346" y="1033" type="line" identifier="teVKnpBcVb"/>
    </contour>
  </outline>
</glyph>
